<svg width="1276" height="216" viewBox="0 0 1276 216" fill="none" xmlns="http://www.w3.org/2000/svg">
<path d="M210.869 111.088C213.25 107.914 213.25 103.494 210.869 100.32C205.428 93.1215 198.344 87.227 190.239 83.3162C190.069 83.2029 189.899 83.0328 189.899 82.8061V54.2972C189.899 36.8972 175.729 22.7278 158.329 22.7278H128.573C128.347 22.7278 128.177 22.6144 128.063 22.3877C124.153 14.2828 118.315 7.19807 111.117 1.75701C109.586 0.623455 107.716 0 105.732 0C103.749 0 101.878 0.623455 100.348 1.81369C93.1498 7.19807 87.312 14.3395 83.4013 22.4444C83.2879 22.6144 83.1179 22.7844 82.8912 22.7844H54.3256C36.9255 22.7844 22.7561 36.9539 22.7561 54.3539V84.1097C22.7561 84.3364 22.6427 84.5065 22.416 84.6198C14.3111 88.5306 7.16973 94.4251 1.78535 101.566C-0.595116 104.74 -0.595116 109.161 1.78535 112.335C7.16973 119.533 14.3111 125.371 22.416 129.282C22.5861 129.395 22.7561 129.565 22.7561 129.792V158.358C22.7561 175.758 36.9255 189.927 54.3256 189.927H84.0814C84.3081 189.927 84.4781 190.04 84.5915 190.267C88.5023 198.372 94.3967 205.513 101.538 210.898C103.125 212.088 104.995 212.711 106.923 212.711C108.906 212.711 110.777 212.088 112.307 210.898C119.505 205.513 125.399 198.372 129.31 190.267C129.424 190.097 129.594 189.927 129.82 189.927H158.386C175.786 189.927 189.955 175.758 189.955 158.358V128.602C189.955 128.375 190.069 128.205 190.295 128.092C198.287 124.181 205.428 118.286 210.869 111.088ZM162.863 59.7383C165.017 59.7383 167.058 60.4184 168.758 61.722C175.162 66.5396 180.604 72.8309 184.401 79.9156C184.514 80.1423 184.458 80.369 184.344 80.539C184.231 80.6524 184.061 80.7657 183.891 80.7657C183.834 80.7657 183.777 80.7657 183.721 80.7091C182.644 80.369 181.737 80.0856 180.887 79.8589C175.956 78.4986 170.798 77.7618 165.641 77.7618C157.252 77.7618 149.147 79.5755 141.609 83.0895C141.609 83.0895 141.609 83.0895 141.553 83.0895C141.269 83.2029 141.042 83.3162 140.816 83.4863L140.646 83.5996C140.589 83.6563 140.476 83.6563 140.419 83.6563C140.249 83.6563 140.136 83.5996 140.022 83.4863C139.852 83.3162 139.796 83.0328 139.909 82.8628C143.763 74.5879 149.714 67.2764 157.026 61.722C158.669 60.4184 160.71 59.7383 162.863 59.7383ZM61.637 43.9252C66.4546 37.464 72.8025 32.0796 79.8872 28.2255C79.9439 28.1688 80.0573 28.1688 80.1706 28.1688C80.284 28.1688 80.454 28.2255 80.5107 28.2822C80.6807 28.4522 80.7374 28.6789 80.6807 28.9056L80.6241 29.019C80.5107 29.3591 80.3973 29.7558 80.284 30.0959C78.5837 35.5369 77.6768 41.2614 77.6768 47.0425C77.6768 55.2608 79.3771 63.139 82.7778 70.5638C83.0045 71.0739 83.2312 71.5839 83.5146 72.094C83.628 72.3208 83.5713 72.5475 83.4013 72.7175C83.2879 72.8309 83.1179 72.8875 83.0045 72.8875C82.9478 72.8875 82.8345 72.8875 82.7778 72.8309C74.4462 68.9768 67.1348 63.0256 61.637 55.7142C59.0298 52.2569 59.0298 47.3826 61.637 43.9252ZM28.0271 82.1827C27.8571 82.1827 27.6871 82.126 27.5737 82.0126C27.4037 81.8426 27.4037 81.6159 27.517 81.3892C31.3711 73.681 37.0389 66.8797 43.9536 61.6654C45.6539 60.3618 47.6943 59.6816 49.8481 59.6816C52.0018 59.6816 54.0422 60.3618 55.7425 61.6654C63.5641 67.5598 69.7419 75.3813 73.596 84.3931C73.7094 84.6198 73.6527 84.8465 73.4827 85.0166C73.3693 85.1299 73.2559 85.1866 73.0859 85.1866C72.9726 85.1866 72.9159 85.1866 72.8025 85.1299C72.2924 84.9032 71.7823 84.6198 71.3289 84.3931C63.7341 80.7657 55.5725 78.9521 47.0708 78.9521C41.0063 78.9521 35.0552 79.9156 29.3307 81.7859C28.9907 81.8993 28.6506 82.0126 28.3105 82.126L28.1972 82.1827C28.1405 82.1827 28.0838 82.1827 28.0271 82.1827ZM49.8481 152.916C47.6943 152.916 45.6539 152.236 43.9536 150.933C37.549 146.115 32.1079 139.824 28.3105 132.739C28.1972 132.512 28.2538 132.286 28.3672 132.116C28.4806 132.002 28.6506 131.889 28.8206 131.889C28.8773 131.889 28.934 131.889 28.9907 131.946C30.1809 132.342 31.2011 132.683 32.1646 132.909H32.2213C37.0389 134.213 42.0265 134.893 47.0708 134.893C55.6292 134.893 63.7908 133.023 71.4423 129.395C71.5556 129.339 71.7256 129.282 71.839 129.225L72.0657 129.112C72.1224 129.055 72.2357 129.055 72.2924 129.055C72.4625 129.055 72.5758 129.112 72.6892 129.225C72.8592 129.395 72.9159 129.679 72.8025 129.849C68.9484 138.124 62.9973 145.435 55.6859 150.933C53.9855 152.236 51.9451 152.916 49.8481 152.916ZM85.1016 139.881L84.9882 140.107C84.8749 140.334 84.7615 140.504 84.7048 140.731C80.9074 148.496 78.9804 156.884 78.9804 165.612C78.9804 171.11 79.7739 176.494 81.3042 181.652C81.5309 182.502 81.8143 183.352 82.211 184.429C82.2677 184.656 82.211 184.883 82.041 185.053C81.9276 185.166 81.8143 185.223 81.6443 185.223C81.5309 185.223 81.4742 185.223 81.3609 185.166C73.6527 181.312 66.908 175.644 61.6937 168.786C59.0865 165.329 59.0865 160.455 61.6937 156.997C67.5882 149.176 75.4097 143.055 84.3648 139.2C84.4215 139.144 84.5348 139.144 84.5915 139.144C84.7615 139.144 84.8749 139.2 84.9882 139.314C85.1583 139.427 85.215 139.711 85.1016 139.881ZM106.356 122.254C97.5707 122.254 90.4293 115.112 90.4293 106.327C90.4293 97.5423 97.5707 90.4009 106.356 90.4009C115.141 90.4009 122.282 97.5423 122.282 106.327C122.282 115.112 115.084 122.254 106.356 122.254ZM128.063 73.5677C127.893 73.5677 127.78 73.511 127.667 73.3976C127.497 73.2276 127.44 72.9442 127.553 72.7742L127.667 72.5475C127.723 72.4341 127.78 72.3208 127.837 72.2641C131.747 64.3859 133.731 55.9409 133.731 47.0992C133.731 41.7715 132.994 36.5004 131.521 31.3995C131.237 30.4359 130.897 29.4157 130.5 28.2822C130.444 28.0555 130.5 27.8288 130.67 27.6587C130.784 27.5454 130.897 27.4887 131.067 27.4887C131.181 27.4887 131.237 27.4887 131.351 27.5454C139.059 31.3995 145.86 37.0672 151.018 43.9819C153.625 47.4392 153.625 52.3135 151.018 55.7709C145.123 63.5924 137.302 69.7703 128.347 73.5677C128.233 73.5677 128.12 73.5677 128.063 73.5677ZM151.018 168.73C146.2 175.191 139.852 180.575 132.768 184.373C132.711 184.429 132.598 184.429 132.484 184.429C132.371 184.429 132.201 184.373 132.144 184.316C131.974 184.146 131.917 183.919 131.974 183.692L132.031 183.522C132.144 183.239 132.257 182.956 132.314 182.616C134.071 177.118 134.921 171.393 134.921 165.556C134.921 157.394 133.221 149.572 129.877 142.204C129.65 141.638 129.367 141.127 129.083 140.504C128.97 140.277 129.027 140.051 129.197 139.881C129.31 139.767 129.48 139.711 129.594 139.711C129.65 139.711 129.764 139.711 129.82 139.767C138.152 143.621 145.463 149.572 151.018 156.884C153.625 160.398 153.625 165.216 151.018 168.73ZM185.138 131.266C181.284 138.974 175.616 145.775 168.701 150.989C167.001 152.293 164.961 152.973 162.807 152.973C160.653 152.973 158.613 152.293 156.912 150.989C149.091 145.095 142.913 137.217 139.059 128.262C138.945 128.035 139.002 127.808 139.172 127.638C139.285 127.525 139.399 127.468 139.569 127.468C139.682 127.468 139.739 127.468 139.852 127.525C140.419 127.808 140.986 128.092 141.496 128.318C149.034 131.889 157.139 133.703 165.584 133.703C171.705 133.703 177.656 132.739 183.437 130.812H183.494C183.777 130.699 184.004 130.642 184.288 130.529L184.458 130.472C184.514 130.472 184.571 130.415 184.628 130.415C184.798 130.415 184.968 130.472 185.081 130.585C185.251 130.812 185.251 131.039 185.138 131.266Z" fill="#0F2A2E"/>
<path d="M371.041 101.736H342.362C341.115 101.736 340.095 102.757 340.095 104.004V164.479C335.39 166.066 330.516 166.859 325.472 166.859C301.837 166.859 276.616 150.536 276.616 104.74C276.616 86.8303 280.64 71.9807 288.291 61.7787C295.546 52.0301 305.805 46.9291 317.934 46.9291C332.5 46.9291 349.22 54.5806 366.336 68.9768C367.017 69.5436 367.923 69.6569 368.717 69.3168C369.51 68.9768 370.02 68.1833 370.077 67.3331L370.984 49.423C371.041 48.4028 370.417 47.4959 369.454 47.1559C354.037 41.8281 338.394 39.1076 322.978 39.1076C300.817 39.1076 280.81 45.1155 266.754 55.9976C251.507 67.7865 243.402 84.6198 243.402 104.74C243.402 126.108 251.281 144.075 266.13 156.657C279.96 168.389 299.683 174.794 321.561 174.794C337.601 174.794 354.491 171.337 371.891 164.592C372.741 164.252 373.308 163.402 373.308 162.495V104.004C373.308 102.757 372.288 101.736 371.041 101.736Z" fill="#111111"/>
<path d="M418.593 41.6581H389.914C388.667 41.6581 387.647 42.6783 387.647 43.9252V169.863C387.647 171.11 388.667 172.13 389.914 172.13H418.593C419.84 172.13 420.86 171.11 420.86 169.863V43.9252C420.86 42.6216 419.84 41.6581 418.593 41.6581Z" fill="#111111"/>
<path d="M488.364 60.9852C452.657 60.9852 430.496 83.0895 430.496 118.683C430.496 153.483 452.657 175.134 488.364 175.134C523.844 175.134 545.891 153.483 545.891 118.683C545.891 83.0895 523.844 60.9852 488.364 60.9852ZM469.093 84.9032C472.55 77.4784 478.728 68.58 488.364 68.58C493.465 68.58 500.946 71.4139 507.294 84.9032C511.771 94.4251 514.435 107.064 514.435 118.683C514.435 130.926 511.828 143.168 507.294 152.293C503.893 159.151 497.829 167.369 488.364 167.369C471.304 167.369 462.122 142.318 462.122 118.683C462.122 106.951 464.729 94.3117 469.093 84.9032Z" fill="#111111"/>
<path d="M717.965 63.8758H699.998C699.318 63.8758 698.638 64.2158 698.241 64.7259C697.788 65.2927 697.674 65.9729 697.788 66.653C699.885 75.5514 702.492 92.8381 696.427 108.708L682.031 144.925L651.142 65.2927C650.802 64.4426 649.952 63.8191 649.045 63.8191H635.386C634.422 63.8191 633.629 64.3859 633.289 65.2927L605.233 138.18L576.837 65.236C576.497 64.3859 575.647 63.8191 574.74 63.8191H546.232C545.495 63.8191 544.758 64.1592 544.361 64.7826C543.964 65.4061 543.851 66.1996 544.134 66.8797L584.149 170.543C584.489 171.393 585.339 172.017 586.246 172.017H598.092C599.055 172.017 599.849 171.45 600.189 170.543L629.094 95.6153L658.34 170.543C658.68 171.393 659.53 171.96 660.437 171.96H677.667C678.631 171.96 679.424 171.393 679.764 170.487L719.949 66.823C720.232 66.1429 720.119 65.3494 719.722 64.7259C719.439 64.2725 718.702 63.8758 717.965 63.8758Z" fill="#111111"/>
<path d="M884.144 146.909C884.031 146.115 883.521 145.435 882.784 145.095C882.047 144.812 881.197 144.868 880.517 145.378C877.796 147.475 874.849 150.196 871.788 153.03C864.93 159.378 857.165 166.632 851.214 166.632C837.725 166.632 825.143 160.341 815.904 148.949C806.949 137.954 801.791 122.821 801.791 107.518C801.791 88.0205 806.099 72.8309 814.6 62.2888C822.989 51.9168 835.061 46.6458 850.477 46.6458C856.372 46.6458 863.23 52.7103 870.485 59.0582C873.885 62.0621 877.456 65.1794 881.253 68.0699C881.934 68.58 882.784 68.6367 883.521 68.3533C884.257 68.0133 884.767 67.3331 884.881 66.483L886.695 48.006C886.808 46.9858 886.184 45.9656 885.164 45.6256C870.655 40.6379 856.429 38.1441 842.826 38.1441C821.798 38.1441 803.662 44.1519 790.456 55.5442C776.173 67.8432 768.635 85.8101 768.635 107.461C768.635 149.006 797.2 174.851 843.166 174.851C856.089 174.851 870.145 172.697 885.051 168.503C886.128 168.219 886.808 167.143 886.695 166.009L884.144 146.909Z" fill="#111111"/>
<path d="M997.443 63.8758H968.764C967.517 63.8758 966.497 64.896 966.497 66.1429V135.063C961.452 152.463 950.117 161.815 942.012 161.815C933.057 161.815 927.219 150.196 927.219 132.172V66.1429C927.219 64.896 926.199 63.8758 924.952 63.8758H896.273C895.026 63.8758 894.006 64.896 894.006 66.1429V124.464C894.006 139.314 897.917 152.123 905.285 161.475C912.256 170.317 921.721 175.191 931.98 175.191C939.235 175.191 947 172.47 953.801 167.539C958.902 163.799 963.209 159.038 966.497 153.54V175.304C966.497 194.235 954.708 206.93 937.194 206.93C927.559 206.93 915.43 200.979 902.054 189.7C901.487 189.19 900.694 189.02 899.957 189.247C899.22 189.474 898.654 189.984 898.427 190.721L892.532 208.631C892.362 209.197 892.419 209.878 892.702 210.388C892.986 210.954 893.496 211.351 894.119 211.521C904.831 214.412 915.373 215.885 925.405 215.885C946.206 215.885 965.08 209.537 978.456 198.032C992.399 186.073 999.767 169.693 999.767 150.649V66.1429C999.71 64.896 998.69 63.8758 997.443 63.8758Z" fill="#111111"/>
<path d="M1109.89 142.431C1109.66 141.638 1108.98 141.014 1108.13 140.844C1107.28 140.674 1106.43 141.014 1105.92 141.638C1093.28 157.621 1080.31 166.406 1069.48 166.406C1052.02 166.406 1039.84 146.002 1039.84 116.813C1039.84 103.494 1042.61 91.3645 1047.6 82.6928C1051.23 76.4016 1057.86 68.8634 1068.8 68.8634C1078.32 68.8634 1092.72 75.2113 1103.37 89.4941C1103.88 90.1742 1104.79 90.5143 1105.64 90.3443C1106.49 90.1742 1107.17 89.4941 1107.4 88.6439L1111.71 70.7338C1111.99 69.6569 1111.36 68.5234 1110.34 68.1266C1096.35 62.4588 1079.8 60.4184 1068.97 60.4184C1013.03 60.4184 1006.96 98.7326 1006.96 115.226C1006.96 133.023 1013.71 148.212 1026.52 159.151C1038.36 169.296 1054.57 174.851 1072.2 174.851C1086.99 174.851 1101.56 170.713 1114.31 162.835C1115.16 162.268 1115.62 161.248 1115.28 160.228L1109.89 142.431Z" fill="#111111"/>
<path d="M1153.31 41.6581H1124.63C1123.38 41.6581 1122.36 42.6783 1122.36 43.9252V169.863C1122.36 171.11 1123.38 172.13 1124.63 172.13H1153.31C1154.55 172.13 1155.57 171.11 1155.57 169.863V43.9252C1155.57 42.6216 1154.55 41.6581 1153.31 41.6581Z" fill="#111111"/>
<path d="M1268.99 138.974C1268.7 138.18 1268.02 137.557 1267.17 137.443C1266.32 137.33 1265.47 137.67 1265.02 138.35C1251.47 156.714 1237.53 166.859 1225.74 166.859C1209.98 166.859 1199.61 149.232 1198.48 120.61H1271.65C1272.67 120.61 1273.58 119.93 1273.86 118.91C1275.11 114.319 1275.73 109.615 1275.73 105.024C1275.73 91.2511 1270.23 79.7455 1259.92 71.754C1250.79 64.6693 1238.32 60.7585 1224.89 60.7585C1209.81 60.7585 1195.02 65.7461 1184.25 74.4178C1171.78 84.5065 1165.21 98.7326 1165.21 115.566C1165.21 133.136 1171.9 148.212 1184.59 159.151C1196.21 169.183 1211.8 174.681 1228.46 174.681C1244.84 174.681 1261.05 169.24 1274.14 159.321C1274.94 158.754 1275.22 157.734 1274.94 156.827L1268.99 138.974ZM1243.93 113.015H1198.48C1199.61 84.3931 1212.7 68.9201 1224.83 68.9201C1238.49 68.9201 1244.61 86.4335 1244.61 103.777C1244.67 106.837 1244.44 109.841 1243.93 113.015Z" fill="#111111"/>
</svg>
